<svg width="35" height="35" viewBox="0 0 35 35" fill="none" xmlns="http://www.w3.org/2000/svg">
<path d="M17.5 2.91663C9.44996 2.91663 2.91663 9.44996 2.91663 17.5C2.91663 25.55 9.44996 32.0833 17.5 32.0833C25.55 32.0833 32.0833 25.55 32.0833 17.5C32.0833 9.44996 25.55 2.91663 17.5 2.91663ZM24.2666 12.8333C24.0479 15.1375 23.1 20.7375 22.6187 23.3187C22.4145 24.4125 22.0062 24.777 21.627 24.8208C20.7812 24.8937 20.1395 24.2666 19.3229 23.727C18.0395 22.8812 17.3104 22.3562 16.0708 21.5395C14.627 20.5916 15.5604 20.0666 16.3916 19.2208C16.6104 19.002 20.3437 15.6041 20.4166 15.2979C20.4268 15.2515 20.4254 15.2033 20.4127 15.1576C20.4 15.1118 20.3763 15.0699 20.3437 15.0354C20.2562 14.9625 20.1395 14.9916 20.0375 15.0062C19.9062 15.0354 17.8645 16.3916 13.8833 19.075C13.3 19.4687 12.775 19.6729 12.3083 19.6583C11.7833 19.6437 10.7916 19.3666 10.0479 19.1187C9.12913 18.827 8.41454 18.6666 8.47288 18.1562C8.50204 17.8937 8.86663 17.6312 9.55204 17.3541C13.8104 15.502 16.6395 14.277 18.0541 13.6937C22.1083 12.002 22.9395 11.7104 23.4937 11.7104C23.6104 11.7104 23.8875 11.7395 24.0625 11.8854C24.2083 12.002 24.252 12.1625 24.2666 12.2791C24.252 12.3666 24.2812 12.6291 24.2666 12.8333Z" fill="white" fill-opacity="0.5"/>
</svg>
