<svg width="35" height="35" viewBox="0 0 35 35" fill="none" xmlns="http://www.w3.org/2000/svg">
<path d="M33.1164 8.0459C33.3412 7.19141 33.1164 6.5625 32.0348 6.5625H28.4558C27.5443 6.5625 27.125 7.10254 26.9002 7.7041C26.9002 7.7041 25.0773 12.7012 22.5009 15.9414C21.6684 16.8779 21.2856 17.1787 20.8299 17.1787C20.6051 17.1787 20.2587 16.8779 20.2587 16.0234V8.0459C20.2587 7.02051 20.0035 6.5625 19.25 6.5625H13.6233C13.0521 6.5625 12.7118 7.04102 12.7118 7.48535C12.7118 8.45605 14 8.68164 14.1337 11.416V17.3496C14.1337 18.6484 13.9271 18.8877 13.4714 18.8877C12.2561 18.8877 9.30299 13.8701 7.55299 8.12793C7.20056 7.01367 6.85421 6.5625 5.93667 6.5625H2.35768C1.33685 6.5625 1.13025 7.10254 1.13025 7.7041C1.13025 8.77051 2.34553 14.0684 6.78737 21.0684C9.74657 25.8467 13.915 28.4375 17.7066 28.4375C19.9853 28.4375 20.2648 27.8633 20.2648 26.8721C20.2648 22.3057 20.0582 21.875 21.2006 21.875C21.7292 21.875 22.6407 22.1758 24.7674 24.4795C27.198 27.2139 27.599 28.4375 28.9601 28.4375H32.5391C33.5599 28.4375 34.0764 27.8633 33.7787 26.7285C33.0981 24.3428 28.4983 19.4346 28.2917 19.1064C27.7631 18.3408 27.915 17.999 28.2917 17.3154C28.2978 17.3086 32.6667 10.3906 33.1164 8.0459Z" fill="white" fill-opacity="0.56"/>
</svg>
