<svg width="34" height="16" viewBox="0 0 34 16" fill="none" xmlns="http://www.w3.org/2000/svg">
<g clip-path="url(#clip0_126_800)">
<path d="M7.49754 -0.00722025C5.71191 0.0160525 3.89496 0.737508 2.3495 2.27351C-0.772734 5.38042 -0.804061 10.6401 2.3495 13.7237C5.40908 16.7142 9.81572 16.7957 13.2408 13.3979L22.2629 4.49605C25.0197 1.76151 27.8182 1.90114 30.1468 4.18187C32.3814 6.36951 32.3606 9.61605 30.1364 11.8386C27.8391 14.1193 25.0092 13.9099 23.0252 12.1761C21.8452 11.0473 20.6443 9.89532 19.6419 8.91787C19.2033 8.42914 18.3784 8.45242 17.9711 8.98769C17.5639 9.51132 17.6579 10.419 18.1591 10.8379C19.2973 11.9433 20.4459 13.0371 21.5737 14.131C24.3618 16.5979 28.5596 16.7957 31.6505 13.7237C34.7727 10.6168 34.804 5.35714 31.6505 2.27351C28.5909 -0.717038 24.1843 -0.798494 20.7592 2.59932L11.7371 11.5011C8.98034 14.2357 6.18181 14.1077 3.85319 11.827C1.61854 9.63932 1.63943 6.36951 3.86363 4.1586C6.16093 1.87787 8.99078 2.08732 10.9748 3.82114C12.1026 4.89169 13.2303 5.99714 14.3581 7.07932C14.7967 7.56805 15.6216 7.54478 16.0289 7.00951C16.4361 6.48587 16.3421 5.57823 15.8409 5.15932C14.7027 4.05387 13.554 2.96005 12.4263 1.86623C11.0375 0.63278 9.28316 -0.030493 7.49754 -0.00722025Z" fill="white"/>
</g>
<defs>
<clipPath id="clip0_126_800">
<rect width="34" height="16" fill="white"/>
</clipPath>
</defs>
</svg>
